<svg width="20" height="20" viewBox="0 0 20 20" fill="none" xmlns="http://www.w3.org/2000/svg">
<path d="M10.6441 3.57423L11.2766 2.94175C11.3904 2.82383 11.4533 2.66593 11.4518 2.50206C11.4503 2.3382 11.3845 2.18148 11.2686 2.06565C11.1526 1.94983 10.9958 1.88418 10.832 1.88283C10.6681 1.88149 10.5102 1.94456 10.3924 2.05846L8.69076 3.76005C8.63271 3.81802 8.58665 3.88687 8.55523 3.96265C8.52381 4.03843 8.50763 4.11966 8.50763 4.2017C8.50763 4.28374 8.52381 4.36497 8.55523 4.44076C8.58665 4.51654 8.63271 4.58538 8.69076 4.64335L10.3666 6.31995C10.4838 6.4373 10.6429 6.50327 10.8088 6.50335C10.9747 6.50343 11.1338 6.43761 11.2512 6.32036C11.3685 6.20312 11.4345 6.04406 11.4346 5.87818C11.4347 5.71229 11.3688 5.55317 11.2516 5.43582L10.6416 4.82668C11.8024 4.95052 12.9025 5.40806 13.8088 6.14397C14.7151 6.87988 15.3887 7.86261 15.7481 8.97329C16.1076 10.084 16.1375 11.275 15.8342 12.4023C15.531 13.5296 14.9075 14.5449 14.0393 15.3254C13.1711 16.1058 12.0954 16.618 10.9422 16.7999C9.78903 16.9819 8.60784 16.8258 7.54152 16.3505C6.4752 15.8753 5.56944 15.1012 4.93381 14.1221C4.29818 13.1429 3.95991 12.0005 3.95993 10.8331C3.95448 9.45966 4.4224 8.12628 5.28493 7.05742C5.3888 6.92813 5.43706 6.76287 5.41909 6.598C5.40112 6.43314 5.31839 6.28216 5.18909 6.17829C5.0598 6.07441 4.89454 6.02616 4.72966 6.04413C4.56479 6.0621 4.4138 6.14483 4.30993 6.27412C3.29233 7.54196 2.72747 9.1134 2.70504 10.7389C2.68261 12.3645 3.20391 13.9509 4.18615 15.2463C5.16839 16.5417 6.55526 17.4719 8.12656 17.8891C9.69787 18.3063 11.3635 18.1867 12.859 17.5491C14.3546 16.9116 15.5942 15.7927 16.3812 14.3702C17.1681 12.9477 17.4573 11.303 17.2027 9.69738C16.9481 8.09176 16.1644 6.6172 14.976 5.50784C13.7876 4.39848 12.2626 3.71793 10.6433 3.57423" fill="#666E83"/>
</svg>
